<svg id="Layer_1" data-name="Layer 1" xmlns="http://www.w3.org/2000/svg" viewBox="0 0 310.75 271.42"><defs><style>.cls-1{opacity:0.1;}.cls-2{isolation:isolate;}.cls-3{fill:#8d5247;}</style></defs><g id="Group_32" data-name="Group 32" class="cls-1"><g id="ROOM" class="cls-2"><g class="cls-2"><path class="cls-3" d="M154.8,23.36H150v13h-7.45V.67h16c7.7,0,12.39,4.64,12.39,11.32a10.71,10.71,0,0,1-8.21,10.86L172,36.36h-8.93ZM150,16.42h8.31c3.21,0,4.9-1.53,4.9-4.38s-1.69-4.44-4.9-4.44H150Z" transform="translate(0 0)"/><path class="cls-3" d="M175.2,18.51C175.2,7.6,183.16,0,193.92,0s18.72,7.55,18.72,18.51S204.68,37,193.92,37,175.2,29.43,175.2,18.51Zm29.74,0c0-6.73-4.49-11.37-11-11.37s-11,4.64-11,11.37,4.43,11.38,11,11.38S204.94,25.25,204.94,18.51Z" transform="translate(0 0)"/><path class="cls-3" d="M217.18,18.51C217.18,7.6,225.13,0,235.89,0s18.72,7.55,18.72,18.51S246.65,37,235.89,37,217.18,29.43,217.18,18.51Zm29.73,0c0-6.73-4.49-11.37-11-11.37s-11,4.64-11,11.37,4.44,11.38,11,11.38S246.91,25.25,246.91,18.51Z" transform="translate(0 0)"/><path class="cls-3" d="M300.46,36.36h-7.35V10.15L284.8,32.49h-8.11l-8.31-22.34V36.36H261V.67H271.9L280.77,25,289.59.67h10.87Z" transform="translate(0 0)"/></g></g><g id="_23" data-name=" 23" class="cls-2"><g class="cls-2"><path class="cls-3" d="M142.59,239.28v28.08H5V244.59l-.32-.31L86.43,161c13.72-14,21.21-23.71,21.21-41.18,0-24.34-14.66-39.94-39.31-39.94-19.34,0-35.57,10-46.17,27.15L0,88.9C14.36,64.57,40.56,51.15,69.27,51.15c39.31,0,69.57,25.27,69.57,69.58,0,24.64-9.36,40.87-29.64,61.46L53,239.28Z" transform="translate(0 0)"/><path class="cls-3" d="M310.75,208.71c0,36.81-33.38,62.71-81.74,62.71-32.76,0-57.41-11.86-70.51-28.7l19.65-20.6c9.68,12.17,25.28,20.6,50.55,20.6,32.13,0,50.85-13.73,50.85-34.64,0-20.59-18.4-34-50.54-34H202.8V145.37h25.27c28.08,0,45.56-11.54,45.56-32.45,0-19-14.67-33.07-45.56-33.07-22.77,0-37.12,7.49-44.92,19.66L161,81.1c12.48-18.72,36.82-29.95,67.08-29.95,44.93,0,76.75,24.65,76.75,61.15,0,20.9-10.6,37.13-28.07,46.8C297.65,168.46,310.75,185.62,310.75,208.71Z" transform="translate(0 0)"/></g></g></g></svg>