<?xml version="1.0" encoding="utf-8"?>
<!-- Generator: Adobe Illustrator 26.0.1, SVG Export Plug-In . SVG Version: 6.00 Build 0)  -->
<svg version="1.1" id="Layer_1" xmlns="http://www.w3.org/2000/svg" xmlns:xlink="http://www.w3.org/1999/xlink" x="0px" y="0px"
	 viewBox="0 0 310.8 271.4" style="enable-background:new 0 0 310.8 271.4;" xml:space="preserve">
<style type="text/css">
	.st0{opacity:0.1;}
	.st1{enable-background:new    ;}
	.st2{fill:#8D5247;}
</style>
<g id="Group_32" transform="translate(-698 -490)" class="st0">
	<g class="st1">
		<path class="st2" d="M852.8,513.4H848v13h-7.4v-35.7h16c7.7,0,12.4,4.6,12.4,11.3c0,5.4-3,9.4-8.2,10.9l9.3,13.5h-8.9L852.8,513.4
			z M848,506.4h8.3c3.2,0,4.9-1.5,4.9-4.4s-1.7-4.4-4.9-4.4H848V506.4z"/>
		<path class="st2" d="M873.2,508.5c0-10.9,8-18.5,18.7-18.5s18.7,7.5,18.7,18.5c0,10.9-8,18.5-18.7,18.5S873.2,519.4,873.2,508.5z
			 M902.9,508.5c0-6.7-4.5-11.4-11-11.4s-11,4.6-11,11.4c0,6.7,4.4,11.4,11,11.4S902.9,515.2,902.9,508.5z"/>
		<path class="st2" d="M915.2,508.5c0-10.9,8-18.5,18.7-18.5s18.7,7.5,18.7,18.5c0,10.9-8,18.5-18.7,18.5S915.2,519.4,915.2,508.5z
			 M944.9,508.5c0-6.7-4.5-11.4-11-11.4s-11,4.6-11,11.4c0,6.7,4.4,11.4,11,11.4S944.9,515.2,944.9,508.5z"/>
		<path class="st2" d="M998.5,526.4h-7.3v-26.2l-8.3,22.3h-8.1l-8.3-22.3v26.2H959v-35.7h10.9l8.9,24.3l8.8-24.3h10.9L998.5,526.4
			L998.5,526.4z"/>
	</g>
</g>
<g class="st0">
	<path class="st2" d="M142.9,239.3v28.1H5.3v-22.8L5,244.3L86.8,161c13.7-14,21.2-23.7,21.2-41.2c0-24.3-14.7-39.9-39.3-39.9
		c-19.3,0-35.6,10-46.2,27.1L0.4,88.9c14.4-24.3,40.6-37.8,69.3-37.8c39.3,0,69.6,25.3,69.6,69.6c0,24.6-9.4,40.9-29.6,61.5
		l-56.2,57.1H142.9z"/>
	<path class="st2" d="M310.8,222.1h-34.9v45.2h-30v-45.2h-97.7V199l78-143.8h34.6L185.7,194h60.2v-54.3h30V194h34.9V222.1z"/>
</g>
</svg>
