<svg xmlns="http://www.w3.org/2000/svg" xmlns:xlink="http://www.w3.org/1999/xlink" width="311.515" height="429.045" viewBox="0 0 311.515 429.045">
  <defs>
    <clipPath id="clip-path">
      <rect id="Rectangle_6" data-name="Rectangle 6" width="311.515" height="429.046" fill="none"/>
    </clipPath>
  </defs>
  <g id="Group_2" data-name="Group 2" transform="translate(0 0.001)">
    <g id="Group_1" data-name="Group 1" transform="translate(0 -0.001)" clip-path="url(#clip-path)">
      <path id="Path_32" data-name="Path 32" d="M80.15,126.808c-.347,0-.693,0-1.045-.005C52.067,126.461,25.733,112.815.831,86.236L15.716,72.294c20.956,22.373,42.371,33.853,63.649,34.118.25.005.494.005.749.005,20.283,0,35.857-10.343,50.92-20.355,4.42-2.931,8.977-5.964,13.539-8.64,44.466-26.11,97.1-23.77,156.42,6.948l-9.38,18.107C238.181,74.807,193.46,72.365,154.9,95.009c-4.073,2.391-8.2,5.133-12.576,8.039-16.781,11.143-35.765,23.76-62.17,23.76" transform="translate(3.405 243.577)" fill="#8d5247"/>
      <path id="Path_33" data-name="Path 33" d="M80.175,113.814c-.347,0-.693,0-1.045-.005C52.087,113.468,25.753,99.821.856,73.242L15.741,59.3C36.7,81.674,58.107,93.154,79.39,93.419c.25.005.494.005.749.005,20.283,0,35.851-10.343,50.92-20.35,4.415-2.931,8.977-5.964,13.539-8.64,44.466-26.11,97.094-23.77,156.415,6.938l-9.369,18.112c-53.433-27.665-98.154-30.106-136.723-7.468-4.073,2.391-8.2,5.138-12.581,8.044-16.776,11.143-35.765,23.755-62.165,23.755" transform="translate(3.508 190.353)" fill="#8d5247"/>
      <path id="Path_34" data-name="Path 34" d="M311.515,429.045H0v-258.6C0,62.108,56.986,0,156.339,0c98.618,0,155.176,62.109,155.176,170.393ZM20.39,408.654H291.125V170.392c0-96.722-47.867-150-134.786-150-87.664,0-135.948,53.28-135.948,150Z" transform="translate(0 -0.002)" fill="#8d5247"/>
      <path id="Path_35" data-name="Path 35" d="M30.413,141.857H10.023c0-59.265,49.268-107.483,109.828-107.483,44.207,0,83.912,25.733,101.162,65.56.347.805.627,1.4.841,1.83l4.384,3.8-1.035,5.832a40.671,40.671,0,0,0-.163,4.909h-7.621l.928,2.844A9.975,9.975,0,0,1,207.3,116.3H204.65c0-1.351.015-2.488.041-3.461a38.485,38.485,0,0,1-2.386-4.8c-14.018-32.365-46.383-53.275-82.454-53.275-49.319,0-89.438,39.068-89.438,87.093" transform="translate(41.07 140.854)" fill="#8d5247"/>
    </g>
  </g>
</svg>
