<svg xmlns="http://www.w3.org/2000/svg" xmlns:xlink="http://www.w3.org/1999/xlink" width="499.55" height="688.023" viewBox="0 0 499.55 688.023">
  <defs>
    <clipPath id="clip-path">
      <rect id="Rectangle_6" data-name="Rectangle 6" width="499.55" height="688.023" fill="none"/>
    </clipPath>
  </defs>
  <g id="Group_2" data-name="Group 2" transform="translate(0 0.001)" opacity="0.066">
    <g id="Group_1" data-name="Group 1" transform="translate(0 -0.001)" clip-path="url(#clip-path)">
      <path id="Path_32" data-name="Path 32" d="M128.028,167.47c-.556,0-1.112,0-1.676-.008C82.994,166.914,40.764,145.03.831,102.408L24.7,80.051c33.606,35.878,67.947,54.288,102.068,54.713.4.008.793.008,1.2.008,32.527,0,57.5-16.586,81.656-32.641,7.087-4.7,14.4-9.564,21.712-13.856,71.307-41.87,155.71-38.118,250.838,11.142l-15.041,29.036c-85.686-44.372-157.4-48.287-219.243-11.976-6.532,3.834-13.153,8.232-20.167,12.891-26.911,17.87-57.353,38.1-99.7,38.1" transform="translate(5.962 426.484)" fill="#8d5247"/>
      <path id="Path_33" data-name="Path 33" d="M128.053,154.474c-.556,0-1.112,0-1.676-.008-43.366-.548-85.6-22.431-125.521-65.053l23.87-22.358c33.606,35.878,67.939,54.288,102.068,54.713.4.008.793.008,1.2.008,32.527,0,57.492-16.586,81.656-32.633,7.079-4.7,14.4-9.564,21.712-13.856,71.307-41.87,155.7-38.118,250.829,11.126l-15.025,29.044c-85.686-44.364-157.4-48.279-219.251-11.976-6.532,3.834-13.153,8.24-20.175,12.9-26.9,17.87-57.353,38.094-99.689,38.094" transform="translate(6.141 333.292)" fill="#8d5247"/>
      <path id="Path_34" data-name="Path 34" d="M499.55,688.022H0v-414.7C0,99.6,91.384,0,250.707,0,408.853,0,499.55,99.6,499.55,273.243ZM32.7,655.324H466.851V273.243c0-155.1-76.759-240.546-216.145-240.546C110.128,32.7,32.7,118.138,32.7,273.243Z" transform="translate(0 -0.003)" fill="#8d5247"/>
      <path id="Path_35" data-name="Path 35" d="M42.721,206.735h-32.7c0-95.038,79.007-172.361,176.122-172.361,70.89,0,134.562,41.265,162.225,105.134.556,1.292,1.005,2.248,1.349,2.935l7.03,6.09-1.659,9.352a65.218,65.218,0,0,0-.262,7.872H342.607l1.488,4.561c-7.839,2.608-13.611-.253-17.723-4.561h-4.243c0-2.166.025-3.989.065-5.551a61.719,61.719,0,0,1-3.826-7.7c-22.48-51.9-74.381-85.433-132.224-85.433-79.089,0-143.423,62.65-143.423,139.663" transform="translate(71.911 246.624)" fill="#8d5247"/>
    </g>
  </g>
</svg>
