<svg xmlns="http://www.w3.org/2000/svg" width="620.463" height="136.538" viewBox="0 0 620.463 136.538">
  <g id="Layer_2" data-name="Layer 2" transform="translate(0 0)">
    <g id="Layer_1" data-name="Layer 1" transform="translate(2 2)">
      <path id="Path_1" data-name="Path 1" d="M98.163,48.852H85.282V74.7H78.09V13.37h25.678c12.087,0,19.444,7.275,19.444,17.791,0,9.639-6.3,16.534-16.733,17.609L124.452,74.7h-9.127Zm-12.88-6.829h18.485c7.7,0,12-3.952,12-10.863s-4.3-10.962-12-10.962H85.282Z" transform="translate(47.719 5.429)" fill="#fff"/>
      <path id="Path_2" data-name="Path 2" d="M120.516,74.7H113.34V13.37h7.176Z" transform="translate(70.752 5.429)" fill="#fff"/>
      <path id="Path_3" data-name="Path 3" d="M182.082,13.37,157.628,74.7h-8.151L124.94,13.37h8.069l20.5,53.009L174.1,13.37Z" transform="translate(78.332 5.429)" fill="#fff"/>
      <path id="Path_4" data-name="Path 4" d="M209.617,67.95V74.7H166.76V13.37h42.146v6.746H173.952V40.354H207.5v6.614H173.952V67.95Z" transform="translate(105.658 5.429)" fill="#fff"/>
      <path id="Path_5" data-name="Path 5" d="M221.333,48.852h-12.88V74.7H201.26V13.37h25.678c12.086,0,19.444,7.275,19.444,17.791,0,9.639-6.3,16.534-16.733,17.609L247.622,74.7h-9.11Zm-12.88-6.829h18.485c7.7,0,12-3.952,12-10.863s-4.3-10.962-12-10.962H208.452Z" transform="translate(128.201 5.429)" fill="#fff"/>
      <path id="Path_6" data-name="Path 6" d="M289.926,13.37,265.488,74.7h-8.151L232.8,13.37h8.052l20.5,53.009,20.6-53.009Z" transform="translate(148.81 5.429)" fill="#fff"/>
      <path id="Path_7" data-name="Path 7" d="M281.842,74.7H274.65V13.37h7.192Z" transform="translate(176.156 5.429)" fill="#fff"/>
      <path id="Path_8" data-name="Path 8" d="M332.77,67.95V74.7H289.93V13.37h42.146v6.746H297.122V40.354H330.67v6.614H297.122V67.95Z" transform="translate(186.14 5.429)" fill="#fff"/>
      <path id="Path_9" data-name="Path 9" d="M412.2,13.37,392.131,74.7h-8.846L366.47,22.679,349.638,74.7h-8.846L320.72,13.37h7.8l16.733,53.091,17.1-53.091h8.267l17,52.91L404.35,13.37Z" transform="translate(206.259 5.429)" fill="#fff"/>
      <path id="Path_10" data-name="Path 10" d="M95.187,76.558V87.8H92.459V76.888A4.663,4.663,0,0,0,87.4,71.763a5.407,5.407,0,0,0-5.7,5.357V87.8H79V60.47h2.728V72.226A7.126,7.126,0,0,1,87.945,69.1a6.994,6.994,0,0,1,7.242,7.457Z" transform="translate(48.314 36.206)" fill="#fff"/>
      <path id="Path_11" data-name="Path 11" d="M91.724,75.162a9.458,9.458,0,1,1,9.408,9.573,9.143,9.143,0,0,1-9.408-9.573Zm16.038,0a6.614,6.614,0,1,0-6.614,6.961,6.432,6.432,0,0,0,6.614-6.961Z" transform="translate(56.621 39.702)" fill="#fff"/>
      <path id="Path_12" data-name="Path 12" d="M119.9,85.033a7.027,7.027,0,0,1-5.126,1.819c-4.117,0-6.366-2.183-6.366-6.4V70.665H104.59V68.235h3.819V62.58h2.728v5.655h7.821v2.48h-7.821V80.5c0,2.546,1.19,3.786,3.588,3.786a5.192,5.192,0,0,0,3.819-1.653Z" transform="translate(65.035 37.584)" fill="#fff"/>
      <path id="Path_13" data-name="Path 13" d="M124.744,82.279a7.87,7.87,0,0,0,5.572-2.249l1.653,2a10.185,10.185,0,0,1-7.225,2.794,9.16,9.16,0,0,1-9.458-9.673,8.912,8.912,0,0,1,9.243-9.458,8.052,8.052,0,0,1,8.515,8.267,12.2,12.2,0,0,1-.265,2.282H118.131a6.333,6.333,0,0,0,6.614,6.035Zm5.423-8.432v-.083a5.274,5.274,0,0,0-5.638-5.522,6.134,6.134,0,0,0-6.4,5.605Z" transform="translate(72.013 39.611)" fill="#fff"/>
      <path id="Path_14" data-name="Path 14" d="M129.07,60.47H131.8V87.8H129.07Z" transform="translate(81.031 36.206)" fill="#fff"/>
      <path id="Path_15" data-name="Path 15" d="M158.886,87.251l-3.9-3.852-1.653,1.9a7.655,7.655,0,0,1-5.9,2.431c-4.249,0-7.407-2.728-7.407-6.8A7.077,7.077,0,0,1,142.7,75.3l2.3-1.819-1.885-1.868a5.9,5.9,0,0,1-1.653-4.216,6.151,6.151,0,0,1,6.514-6.068,6,6,0,0,1,6.4,5.919,5.754,5.754,0,0,1-2.183,4.63l-2.546,2,5.225,5.109,4.431-5.093,2.331,1.868-4.646,5.307,6.151,6.184ZM152.834,81.3,147.1,75.578l-2.447,1.968a4.167,4.167,0,0,0-1.521,3.39,3.819,3.819,0,0,0,4.249,3.952,4.646,4.646,0,0,0,3.6-1.455ZM144.468,67.41a3.208,3.208,0,0,0,.909,2.331l2.067,2.067,2.662-2.1a2.861,2.861,0,0,0,1.058-2.364,2.993,2.993,0,0,0-3.307-3.175,3.175,3.175,0,0,0-3.39,3.241Z" transform="translate(88.185 36.756)" fill="#fff"/>
      <path id="Path_16" data-name="Path 16" d="M174.278,66.068l-.942,2.579a6.729,6.729,0,0,0-2.083-.364,5.589,5.589,0,0,0-5.7,5.787v10.3H162.82V66.184h2.331l.248,3.208a6.928,6.928,0,0,1,6.3-3.671A8.267,8.267,0,0,1,174.278,66.068Z" transform="translate(103.084 39.635)" fill="#fff"/>
      <path id="Path_17" data-name="Path 17" d="M180.055,82.279a7.8,7.8,0,0,0,5.555-2.249l1.653,2a10.119,10.119,0,0,1-7.159,2.794,9.16,9.16,0,0,1-9.458-9.673,8.912,8.912,0,0,1,9.243-9.458,8.052,8.052,0,0,1,8.515,8.267,12.2,12.2,0,0,1-.265,2.282H173.474a6.366,6.366,0,0,0,6.581,6.035Zm5.423-8.432v-.083a5.274,5.274,0,0,0-5.655-5.522,6.134,6.134,0,0,0-6.366,5.605Z" transform="translate(108.187 39.611)" fill="#fff"/>
      <path id="Path_18" data-name="Path 18" d="M183.52,82.572l1.306-2.232a11.888,11.888,0,0,0,6.514,1.868c2.4,0,4.844-.694,4.844-2.91,0-1.968-2.331-2.364-5.059-2.877-4.481-.843-6.878-1.786-6.878-5.126,0-4.332,4.084-5.605,7.523-5.605a12.665,12.665,0,0,1,6.845,1.885l-1.306,2.216A10.664,10.664,0,0,0,191.7,68.3c-2.976,0-4.613,1.025-4.613,2.91,0,1.455.86,1.968,4.431,2.629,4.084.761,7.49,1.455,7.49,5.307s-3.158,5.7-7.7,5.7A14.3,14.3,0,0,1,183.52,82.572Z" transform="translate(116.609 39.616)" fill="#fff"/>
      <path id="Path_19" data-name="Path 19" d="M209.5,85.033a6.961,6.961,0,0,1-5.126,1.819c-4.117,0-6.366-2.183-6.366-6.4V70.665H194.19V68.235h3.819V62.58h2.728v5.655h7.821v2.48h-7.821V80.5c0,2.546,1.207,3.786,3.6,3.786a5.225,5.225,0,0,0,3.819-1.653Z" transform="translate(123.581 37.584)" fill="#fff"/>
      <path id="Path_20" data-name="Path 20" d="M221.3,73.147V84.391h-2.331l-.215-3.042a8.432,8.432,0,0,1-6.977,3.522c-3.307,0-6.415-1.968-6.415-5.787,0-4.15,3.72-5.787,7.391-5.787a20.37,20.37,0,0,1,5.853.876V73.147c0-3.208-1.786-4.845-4.96-4.845a9.921,9.921,0,0,0-6.035,2l-1.19-2.1a12.186,12.186,0,0,1,7.573-2.513C218.571,65.69,221.3,68.154,221.3,73.147Zm-2.7,3.671v-.364a18.023,18.023,0,0,0-5.456-.843c-2.761,0-4.96.959-4.96,3.307,0,2.034,1.653,3.191,3.968,3.191,3.175.05,6.382-2.05,6.415-5.291Z" transform="translate(130.88 39.616)" fill="#fff"/>
      <path id="Path_21" data-name="Path 21" d="M234.351,66V84.188H231.97l-.215-2.86a6.465,6.465,0,0,1-5.886,3.307,7.093,7.093,0,0,1-7.275-7.457V66h2.728V77.21a4.762,4.762,0,0,0,5.059,4.845,5.142,5.142,0,0,0,5.241-5.357V66Z" transform="translate(139.521 39.819)" fill="#fff"/>
      <path id="Path_22" data-name="Path 22" d="M243.215,66.068l-.959,2.579a6.614,6.614,0,0,0-2.067-.364,5.605,5.605,0,0,0-5.721,5.787v10.3H231.74V66.184h2.331l.265,3.208a6.911,6.911,0,0,1,6.283-3.671,8.366,8.366,0,0,1,2.6.347Z" transform="translate(148.117 39.635)" fill="#fff"/>
      <path id="Path_23" data-name="Path 23" d="M255.949,73.147V84.391h-2.315l-.231-3.042a8.432,8.432,0,0,1-6.977,3.522c-3.307,0-6.415-1.968-6.415-5.787,0-4.15,3.72-5.787,7.391-5.787a20.369,20.369,0,0,1,5.853.876V73.147c0-3.208-1.769-4.845-4.96-4.845a9.921,9.921,0,0,0-6.035,2l-1.207-2.1a12.186,12.186,0,0,1,7.573-2.513C253.221,65.69,255.949,68.154,255.949,73.147Zm-2.728,3.671v-.364a17.957,17.957,0,0,0-5.456-.843c-2.761,0-4.96.959-4.96,3.307,0,2.034,1.653,3.191,3.968,3.191C250.03,82.159,253.221,80.059,253.221,76.818Z" transform="translate(153.521 39.616)" fill="#fff"/>
      <path id="Path_24" data-name="Path 24" d="M269.6,73.126V84.369h-2.728V73.456a4.845,4.845,0,0,0-4.96-5.126,5.44,5.44,0,0,0-5.837,5.307V84.369H253.35V66.181h2.331l.215,2.96a7.424,7.424,0,0,1,13.674,4.034Z" transform="translate(162.238 39.638)" fill="#fff"/>
      <path id="Path_25" data-name="Path 25" d="M280.541,85.033a7.027,7.027,0,0,1-5.126,1.819c-4.117,0-6.366-2.183-6.366-6.4V70.665H265.23V68.235h3.819V62.58h2.728v5.655H279.6v2.48h-7.821V80.5c0,2.546,1.19,3.786,3.588,3.786a5.225,5.225,0,0,0,3.836-1.653Z" transform="translate(170.001 37.584)" fill="#fff"/>
      <path id="Path_26" data-name="Path 26" d="M2.29,64.573c5.126,5.473,13.046,11.987,23.016,12.12s16.369-6.052,22.8-9.854c9.921-5.754,25.016-9.425,47.6,2.331" transform="translate(-1.811 36.832)" fill="none" stroke="#fff" stroke-miterlimit="10" stroke-width="4"/>
      <path id="Path_27" data-name="Path 27" d="M2.32,51.588c5.126,5.473,13.046,11.987,23.016,12.12S41.688,57.656,48.2,53.787c9.8-5.688,24.934-9.375,47.536,2.4" transform="translate(-1.791 28.338)" fill="none" stroke="#fff" stroke-miterlimit="10" stroke-width="4"/>
      <path id="Path_28" data-name="Path 28" d="M96.427,53.984v79.993h0v.562H2v-.562H2V53.984H2C2,20.584,19.444,2,49.4,2S96.427,20.584,96.427,53.967Z" transform="translate(-2 -2)" fill="none" stroke="#fff" stroke-miterlimit="10" stroke-width="4"/>
      <path id="Path_29" data-name="Path 29" d="M12,67.935A31.944,31.944,0,0,1,44.357,36.371,32.357,32.357,0,0,1,74.136,55.6c1.653,3.77,1.025-.364,1.025,4" transform="translate(4.534 20.457)" fill="none" stroke="#fff" stroke-miterlimit="10" stroke-width="4"/>
    </g>
  </g>
</svg>
